<?xml version="1.0" standalone="no"?>
<!DOCTYPE svg PUBLIC "-//W3C//DTD SVG 20010904//EN"
 "http://www.w3.org/TR/2001/REC-SVG-20010904/DTD/svg10.dtd">
<svg version="1.0" xmlns="http://www.w3.org/2000/svg"
 width="2400.000000pt" height="2400.000000pt" viewBox="0 0 2400.000000 2400.000000"
 preserveAspectRatio="xMidYMid meet">
<metadata>
Created by potrace 1.11, written by Peter Selinger 2001-2013
</metadata>
<g transform="translate(0.000000,2400.000000) scale(0.100000,-0.100000)"
fill="#000000" stroke="none">
<path d="M11721 23622 c-56 -59 -254 -262 -440 -451 -185 -189 -374 -383 -421
-431 -47 -48 -229 -234 -405 -414 -176 -180 -385 -394 -465 -476 -80 -82 -278
-285 -441 -452 -164 -167 -347 -355 -409 -418 -61 -63 -277 -284 -479 -490
-203 -206 -407 -415 -455 -465 -48 -49 -144 -147 -213 -216 l-125 -127 -66 -8
c-37 -4 -76 -8 -87 -10 -48 -5 -132 -15 -155 -19 -14 -2 -50 -7 -80 -10 -30
-3 -66 -8 -80 -10 -14 -2 -50 -7 -80 -10 -76 -10 -107 -13 -165 -21 -89 -11
-99 -13 -160 -18 -33 -4 -71 -8 -85 -11 -14 -2 -43 -7 -65 -9 -89 -11 -151
-18 -165 -21 -8 -2 -44 -6 -80 -10 -36 -4 -72 -8 -80 -10 -8 -2 -44 -6 -80
-10 -36 -3 -72 -8 -80 -10 -8 -2 -44 -6 -80 -10 -36 -3 -76 -8 -90 -10 -38 -7
-105 -15 -230 -30 -68 -7 -85 -10 -285 -35 -88 -11 -176 -22 -195 -25 -19 -2
-62 -7 -95 -11 -33 -3 -67 -8 -75 -9 -8 -2 -44 -6 -80 -10 -36 -4 -72 -8 -80
-10 -8 -2 -44 -6 -80 -10 -36 -3 -72 -8 -80 -10 -8 -2 -40 -7 -70 -10 -30 -3
-86 -10 -125 -15 -38 -5 -95 -12 -125 -15 -56 -6 -102 -12 -155 -20 -16 -2
-57 -7 -90 -10 -33 -4 -71 -8 -85 -11 -14 -2 -63 -8 -110 -14 -47 -6 -96 -12
-110 -14 -14 -3 -50 -7 -80 -11 -70 -7 -117 -13 -210 -25 -41 -5 -97 -12 -125
-15 -27 -3 -66 -8 -85 -11 -37 -5 -73 -10 -155 -19 -27 -4 -61 -8 -75 -10 -14
-2 -50 -6 -80 -10 -47 -5 -132 -16 -245 -30 -16 -2 -52 -7 -80 -10 -27 -3 -61
-7 -75 -10 -14 -2 -46 -7 -73 -10 -26 -3 -68 -7 -95 -10 -26 -3 -63 -8 -82
-11 -19 -3 -56 -7 -81 -9 -26 -2 -60 -6 -75 -9 -48 -8 -212 -28 -231 -29 -15
0 -16 -11 -4 -97 5 -36 12 -92 16 -125 3 -33 8 -67 10 -75 2 -8 7 -42 10 -75
3 -33 10 -91 16 -130 5 -38 12 -88 14 -110 2 -22 11 -98 20 -170 9 -71 18
-148 21 -170 2 -22 7 -56 9 -75 3 -19 7 -51 9 -70 12 -94 17 -137 21 -160 3
-14 7 -52 10 -85 4 -33 8 -71 10 -85 2 -14 7 -50 10 -80 3 -30 8 -72 11 -92 9
-64 13 -102 19 -148 3 -25 7 -61 10 -80 3 -19 7 -60 11 -90 3 -30 7 -67 10
-81 2 -15 6 -47 9 -70 18 -148 27 -223 30 -239 2 -8 6 -44 9 -80 4 -36 9 -76
11 -90 2 -14 7 -50 10 -80 3 -30 8 -66 10 -80 2 -14 7 -50 10 -80 3 -30 8 -66
10 -80 2 -14 7 -50 10 -80 3 -30 8 -66 10 -80 3 -14 7 -47 10 -75 3 -27 7 -66
10 -85 3 -19 7 -60 10 -90 4 -30 8 -62 10 -70 2 -8 7 -40 10 -70 3 -30 12
-107 20 -170 8 -63 17 -139 20 -169 4 -30 8 -61 10 -70 1 -9 6 -47 10 -86 4
-38 8 -72 10 -75 2 -3 6 -36 9 -75 4 -38 9 -77 11 -85 2 -8 6 -42 9 -75 3 -33
8 -69 10 -80 2 -11 7 -51 11 -90 4 -38 8 -77 10 -85 1 -8 6 -42 9 -75 4 -33 9
-73 11 -90 11 -89 17 -133 20 -155 2 -14 9 -68 15 -120 6 -52 13 -108 15 -125
2 -16 20 -163 41 -325 21 -167 41 -298 48 -302 8 -6 7 -8 -1 -8 -7 0 -13 -4
-13 -10 0 -8 -148 -258 -160 -270 -3 -3 -13 -18 -23 -35 -17 -30 -100 -166
-127 -210 -8 -13 -37 -61 -65 -106 -27 -45 -60 -98 -72 -118 -13 -20 -26 -43
-30 -51 -4 -8 -11 -19 -15 -25 -5 -5 -229 -370 -498 -810 -269 -440 -494 -805
-500 -812 -5 -7 -10 -15 -10 -17 0 -5 -130 -221 -179 -296 -9 -14 -20 -33 -26
-42 -5 -10 -49 -82 -98 -160 -48 -79 -133 -218 -190 -310 -56 -92 -192 -314
-302 -493 -110 -179 -204 -333 -210 -343 -5 -10 -31 -51 -56 -92 -26 -41 -90
-147 -144 -235 -175 -287 -208 -340 -227 -368 -11 -16 -18 -30 -16 -31 22 -15
67 -43 80 -51 10 -5 84 -50 164 -100 81 -49 162 -99 180 -110 19 -11 213 -130
431 -264 219 -134 607 -372 863 -529 256 -157 499 -306 540 -331 41 -25 82
-50 92 -56 40 -23 167 -101 218 -133 182 -116 752 -462 761 -462 5 0 9 -4 9
-10 0 -5 4 -10 9 -10 6 0 29 -13 53 -29 24 -16 59 -38 78 -49 19 -10 73 -43
120 -72 47 -29 99 -61 115 -70 17 -10 215 -131 440 -270 226 -139 422 -260
437 -269 221 -131 238 -144 249 -184 6 -22 14 -47 19 -56 5 -9 41 -106 80
-216 39 -110 80 -222 90 -250 10 -27 39 -107 64 -177 25 -70 52 -144 60 -165
8 -21 38 -103 67 -183 99 -278 109 -305 118 -325 5 -11 19 -51 32 -90 13 -38
26 -74 31 -80 4 -5 8 -18 8 -30 0 -12 4 -25 8 -30 5 -6 19 -39 31 -75 13 -36
39 -108 58 -160 19 -52 52 -142 73 -200 72 -201 131 -365 150 -415 10 -27 51
-140 90 -250 39 -110 75 -209 80 -220 10 -23 22 -58 300 -825 116 -322 218
-603 226 -625 9 -22 38 -103 66 -180 61 -174 98 -274 109 -300 5 -11 41 -110
80 -220 39 -110 72 -201 73 -202 2 -2 40 11 281 99 61 22 164 59 230 83 66 23
170 61 230 83 61 22 169 61 240 87 72 25 171 62 220 80 50 19 191 70 315 115
124 44 234 84 245 89 11 5 272 99 580 210 308 111 576 208 595 216 19 8 206
75 415 150 209 75 391 141 404 146 13 6 81 30 150 55 133 48 189 68 366 133
61 22 218 79 350 127 132 47 281 101 330 119 50 18 153 56 231 84 l141 51 294
-100 c162 -54 596 -201 964 -325 369 -124 783 -264 920 -310 138 -46 545 -184
905 -305 360 -122 741 -250 845 -285 105 -35 469 -158 811 -273 l620 -210 118
352 c65 193 163 482 218 641 54 160 100 297 102 305 4 14 94 280 261 775 85
250 509 1510 635 1885 55 162 163 482 240 710 78 228 161 477 186 553 l46 139
131 85 c73 47 155 100 182 118 64 41 356 229 1095 705 327 211 631 406 675
435 44 29 121 78 170 110 50 32 113 73 140 90 331 215 457 295 462 295 3 0 22
13 42 28 20 16 81 57 136 91 55 34 280 179 500 321 366 236 752 485 908 585
34 21 119 77 189 122 l127 83 -56 88 c-229 355 -293 455 -293 458 0 3 -5 10
-11 17 -6 7 -69 102 -139 212 -71 110 -177 276 -237 368 -59 92 -115 179 -123
192 -27 43 -262 407 -356 550 -50 78 -97 152 -104 165 -7 13 -17 29 -22 34
-13 15 -197 298 -205 316 -4 8 -32 53 -63 100 -31 47 -114 175 -185 285 -70
110 -157 245 -193 300 -36 55 -106 163 -155 240 -50 77 -109 169 -132 205 -92
144 -134 209 -187 290 -30 47 -92 144 -138 215 -46 72 -111 173 -145 225 -33
52 -88 137 -120 188 -33 50 -93 142 -132 203 -40 62 -71 114 -69 118 2 3 7 42
11 86 4 44 9 91 10 105 1 14 6 57 9 95 4 39 9 86 11 105 2 19 7 64 10 100 3
36 8 81 10 100 3 30 11 102 20 190 1 14 6 61 10 105 3 44 8 91 10 105 2 14 6
54 10 90 3 36 8 81 10 100 7 56 15 130 20 197 3 35 7 77 10 95 2 18 7 65 11
103 3 39 7 81 9 95 1 14 6 59 10 100 4 41 8 86 10 100 1 14 6 59 9 100 4 41 9
86 11 100 2 14 6 59 10 100 4 41 9 88 11 105 4 37 25 247 29 295 2 19 5 55 9
80 3 25 8 70 11 100 8 90 35 362 40 400 2 19 7 64 10 100 3 36 8 81 10 100 2
19 7 66 10 103 4 37 8 76 10 85 1 9 6 57 10 106 4 49 8 97 10 106 2 10 6 55
10 100 4 45 8 90 10 99 2 10 6 51 10 92 3 41 8 88 10 104 1 17 6 59 9 95 13
130 17 166 21 200 3 19 7 64 10 100 6 73 14 148 20 200 3 19 7 58 9 85 13 134
17 182 21 205 2 14 6 60 10 102 3 42 8 85 9 95 2 10 7 56 11 103 4 47 8 92 10
100 1 8 6 54 10 103 l7 87 -34 1 c-18 0 -41 2 -50 4 -9 2 -54 6 -100 10 -46 4
-90 9 -99 10 -9 2 -52 6 -95 10 -43 4 -90 8 -104 10 -14 2 -61 7 -105 10 -44
4 -87 8 -96 10 -8 2 -49 6 -90 9 -41 4 -90 9 -109 11 -19 2 -60 7 -90 10 -30
3 -75 7 -100 10 -25 3 -70 7 -100 10 -88 8 -342 34 -395 40 -14 2 -58 6 -98
10 -40 3 -83 8 -97 10 -14 2 -59 7 -100 10 -41 3 -86 8 -100 10 -14 2 -56 6
-95 10 -38 3 -88 8 -110 11 -22 3 -65 7 -95 9 -30 2 -77 7 -105 10 -63 7 -124
13 -200 20 -33 3 -76 8 -95 10 -57 8 -134 15 -300 30 -41 3 -86 8 -100 10 -30
4 -103 13 -180 20 -30 3 -75 7 -100 10 -25 3 -72 7 -105 10 -33 3 -76 7 -95
10 -19 2 -62 7 -95 10 -33 3 -82 8 -110 10 -103 10 -161 16 -185 20 -14 2 -61
7 -105 10 -44 4 -93 8 -110 10 -16 2 -57 6 -90 9 -33 4 -76 8 -95 11 -19 2
-66 7 -105 10 -38 3 -81 8 -95 10 -14 2 -52 7 -85 10 -97 9 -167 16 -210 20
-22 2 -67 7 -100 10 -33 3 -78 8 -100 10 -22 2 -67 7 -100 10 -80 8 -141 14
-195 20 -25 3 -65 7 -90 9 -152 14 -187 18 -205 23 -11 3 -78 63 -150 134 -71
70 -196 192 -277 271 -81 79 -278 271 -438 428 -161 157 -351 343 -423 413
-73 71 -278 271 -456 445 -178 175 -367 359 -420 411 -53 51 -253 247 -445
435 -192 187 -385 377 -431 421 -45 44 -230 225 -411 402 -350 342 -507 495
-570 555 l-39 37 -104 -107z"/>
</g>
</svg>
